<?xml version="1.0" standalone="no"?>
<!DOCTYPE svg PUBLIC "-//W3C//DTD SVG 20010904//EN"
 "http://www.w3.org/TR/2001/REC-SVG-20010904/DTD/svg10.dtd">
<svg version="1.0" xmlns="http://www.w3.org/2000/svg"
 width="36.000000pt" height="31.000000pt" viewBox="0 0 36.000000 31.000000"
 preserveAspectRatio="xMidYMid meet">

<g transform="translate(0.000000,31.000000) scale(0.100000,-0.100000)"
fill="#000000" stroke="none">
<path d="M304 295 c-9 -23 3 -45 26 -45 25 0 37 25 20 45 -16 19 -39 19 -46 0z"/>
<path d="M0 130 l0 -130 35 0 c34 0 35 1 35 40 l0 40 68 0 67 0 25 -40 c22
-35 29 -40 63 -40 l39 0 -31 42 c-30 41 -31 43 -11 50 42 16 51 108 14 149
-15 17 -33 19 -161 19 l-143 0 0 -130z m255 40 c0 -25 -1 -25 -92 -28 l-93 -3
0 31 0 31 93 -3 c91 -3 92 -3 92 -28z"/>
</g>
</svg>
